<svg fill="#ffffff" width="20px" height="20px" viewBox="0 0 10 10" version="1.1" xmlns="http://www.w3.org/2000/svg" stroke="#ffffff" stroke-width="0.00032"><g id="SVGRepo_bgCarrier" stroke-width="0"/><g id="SVGRepo_tracerCarrier" stroke-linecap="round" stroke-linejoin="round" stroke="#CCCCCC" stroke-width="0.064"/><g id="SVGRepo_iconCarrier"><title>linkedin</title><path d="M8.993 0.314H0.997a0.683 0.683 0 0 0 -0.683 0.675v8.023a0.683 0.683 0 0 0 0.683 0.675h8.004c0.375 0 0.68 -0.301 0.686 -0.675V0.989a0.686 0.686 0 0 0 -0.686 -0.675h-0.009zM3.094 8.301H1.702V3.828H3.094zM2.398 3.217a0.806 0.806 0 1 1 0.806 -0.806v0.001a0.805 0.805 0 0 1 -0.805 0.805h-0.001zm5.901 5.084h-1.388v-2.175c0 -0.519 -0.011 -1.186 -0.723 -1.186 -0.724 0 -0.834 0.564 -0.834 1.148v2.213h-1.388V3.829h1.333v0.61h0.018a1.466 1.466 0 0 1 1.319 -0.722h-0.003c1.406 0 1.666 0.926 1.666 2.13v2.455z"/></g></svg>